<svg id="图层_1" data-name="图层 1" xmlns="http://www.w3.org/2000/svg" viewBox="0 0 483.29 328"><defs><style>.cls-1{fill:#e4007f;opacity:0.44;}.cls-2{fill:#00a0e9;}</style></defs><title>icon3</title><path class="cls-1" d="M403,143c-104.93,0-190,86.19-190,192.5,0,1.84,0,3.67.08,5.5h30.83c-.1-2.32-.16-4.65-.16-7a159.25,159.25,0,0,1,318.5,0c0,2.35-.06,4.68-.16,7h30.83c.05-1.83.08-3.66.08-5.5C593,229.19,507.93,143,403,143Z" transform="translate(-166.24 -143)"/><ellipse class="cls-2" cx="72" cy="260.5" rx="72" ry="67.5"/><path d="M188.22,393.51c0-1.67,7.71-3,17.21-3,9.22,0,16.75,1.27,17.19,2.87a1.06,1.06,0,0,0,.34-.72c0-2.05-8.06-3.72-18-3.72s-18,1.66-18,3.72c0,.58.65,1.14,1.82,1.63C188.42,394,188.22,393.77,188.22,393.51Z" transform="translate(-166.24 -143)"/><path d="M253.79,392.88c0-1.67,7.71-3,17.21-3,9.22,0,16.75,1.27,17.19,2.87a1.06,1.06,0,0,0,.34-.72c0-2.05-8.06-3.72-18-3.72s-18,1.66-18,3.72c0,.58.65,1.14,1.82,1.63C254,393.4,253.79,393.14,253.79,392.88Z" transform="translate(-166.24 -143)"/><ellipse cx="72" cy="285.5" rx="59.5" ry="13"/><ellipse class="cls-2" cx="411.29" cy="260.5" rx="72" ry="67.5"/><path d="M527.51,393.51c0-1.67,7.71-3,17.21-3,9.22,0,16.75,1.27,17.19,2.87a1.06,1.06,0,0,0,.34-.72c0-2.05-8.06-3.72-18-3.72s-18,1.66-18,3.72c0,.58.65,1.14,1.82,1.63C527.71,394,527.51,393.77,527.51,393.51Z" transform="translate(-166.24 -143)"/><path d="M593.08,392.88c0-1.67,7.71-3,17.21-3,9.22,0,16.75,1.27,17.19,2.87a1.06,1.06,0,0,0,.34-.72c0-2.05-8.06-3.72-18-3.72s-18,1.66-18,3.72c0,.58.65,1.14,1.82,1.63C593.27,393.4,593.08,393.14,593.08,392.88Z" transform="translate(-166.24 -143)"/><ellipse cx="411.29" cy="285.5" rx="59.5" ry="13"/></svg>