<svg id="图层_1" data-name="图层 1" xmlns="http://www.w3.org/2000/svg" viewBox="0 0 482.76 328">
  <defs>
    <style>.cls-1{fill:#e4007f;opacity:0.44;}
      .cls-2{fill:#00a0e9;}
      .cls-3{fill:#231815;stroke:#ff0;stroke-miterlimit:10;stroke-width:0.4px;}
    </style>
  </defs>
  <title>icon2</title>
  <path class="cls-1" d="M403,143c-104.93,0-190,86.19-190,192.5,0,1.84,0,3.67.08,5.5h30.83c-.1-2.32-.16-4.65-.16-7a159.25,159.25,0,0,1,318.5,0c0,2.35-.06,4.68-.16,7h30.83c.05-1.83.08-3.66.08-5.5C593,229.19,507.93,143,403,143Z" transform="translate(-166.24 -143)"/>
  <ellipse class="cls-2" cx="410.76" cy="260.5" rx="72" ry="67.5">
    <animateTransform attributeName="transform"
      attributeType="XML"
      type="rotate"
      from="0 50 50"
      to="360 50 50"
      dur="6s"
      repeatCount="indefinite" />
  </ellipse>
  <path d="M527.86,387.39c0-7.81,9.91-14.13,22.14-14.13,11.86,0,21.54,6,22.11,13.44a13.34,13.34,0,0,0,.43-3.37c0-9.62-10.37-17.43-23.15-17.43s-23.15,7.8-23.15,17.43a13.94,13.94,0,0,0,2.34,7.64A9.41,9.41,0,0,1,527.86,387.39Z" transform="translate(-166.24 -143)"/>
  <path d="M587.86,387.39c0-7.81,9.91-14.13,22.14-14.13,11.86,0,21.54,6,22.11,13.44a13.34,13.34,0,0,0,.43-3.37c0-9.62-10.37-17.43-23.15-17.43s-23.15,7.8-23.15,17.43a13.94,13.94,0,0,0,2.34,7.64A9.41,9.41,0,0,1,587.86,387.39Z" transform="translate(-166.24 -143)"/>
  <path class="cls-3" d="M552.06,409.5c0,.76-.06,1.52-.06,2.29,0,19.72,11.19,35.71,25,35.71s25-16,25-35.71c0-.77,0-1.53-.06-2.29Z" transform="translate(-166.24 -143)"/>
  <ellipse class="cls-2" cx="72" cy="260.5" rx="72" ry="67.5">
  <animateTransform attributeName="transform"
    attributeType="XML"
    type="rotate"
    from="0 50 50"
    to="360 50 50"
    dur="3s"
    repeatCount="indefinite" />
  </ellipse>
  <path d="M189.1,387.39c0-7.81,9.91-14.13,22.14-14.13,11.86,0,21.54,6,22.11,13.44a13.34,13.34,0,0,0,.43-3.37c0-9.62-10.37-17.43-23.15-17.43s-23.15,7.8-23.15,17.43a13.94,13.94,0,0,0,2.34,7.64A9.41,9.41,0,0,1,189.1,387.39Z" transform="translate(-166.24 -143)"/>
  <path d="M249.1,387.39c0-7.81,9.91-14.13,22.14-14.13,11.86,0,21.54,6,22.11,13.44a13.34,13.34,0,0,0,.43-3.37c0-9.62-10.37-17.43-23.15-17.43s-23.15,7.8-23.15,17.43a13.94,13.94,0,0,0,2.34,7.64A9.41,9.41,0,0,1,249.1,387.39Z" transform="translate(-166.24 -143)"/>
  <path class="cls-3" d="M213.29,409.5c0,.76-.06,1.52-.06,2.29,0,19.72,11.19,35.71,25,35.71s25-16,25-35.71c0-.77,0-1.53-.06-2.29Z" transform="translate(-166.24 -143)"/>
</svg>
